<svg viewBox="0 0 24 24" fill="none" xmlns="http://www.w3.org/2000/svg">
<path fill-rule="evenodd" clip-rule="evenodd" d="M1 4C1 2.34315 2.34315 1 4 1H14C15.1323 1 16.1181 1.62732 16.6288 2.55337L20.839 3.68148C22.4394 4.11031 23.3891 5.75532 22.9603 7.35572L19.3368 20.8787C18.908 22.4791 17.263 23.4288 15.6626 23L8.19849 21H4C2.34315 21 1 19.6569 1 18V4ZM17 18V4.72339L20.3213 5.61334C20.8548 5.75628 21.1714 6.30461 21.0284 6.83808L17.405 20.361C17.262 20.8945 16.7137 21.2111 16.1802 21.0681L15.1198 20.784C16.222 20.3403 17 19.261 17 18ZM4 3C3.44772 3 3 3.44772 3 4V18C3 18.5523 3.44772 19 4 19H14C14.5523 19 15 18.5523 15 18V4C15 3.44772 14.5523 3 14 3H4Z" fill="#374151"/>
</svg>